<?xml version="1.0" encoding="utf-8"?>
<svg data-background-color="#50a060" preserveAspectRatio="xMidYMid slice" height="240px" width="580px" viewBox="30 81.7 580 240" xmlns="http://www.w3.org/2000/svg">
  <rect width="580" height="240" opacity="1" data-fill-palette-color="background" id="background" style="transform-origin: 320px 201.929px; fill: rgb(56, 161, 115);" y="81.929" x="30"/>
  <g id="tight-bounds" transform="matrix(1,0,0,1,122.24000000000001,169.453531625246)">
    <svg viewBox="0 0 395.52 61.09293674950803" height="61.09293674950803" width="395.52">
      <g>
        <svg viewBox="0 0 505.33592964736 78.05536000000001" height="61.09293674950803" width="395.52">
          <g>
            <rect width="5.093424687360001" height="56.7624" x="408.85357247999997" y="10.646480000000004" fill="#ffffff" opacity="1" stroke-width="0" stroke="transparent" fill-opacity="1" class="rect-o-0" data-fill-palette-color="primary" rx="1%" id="o-0" data-palette-color="#ffffff"/>
          </g>
          <g transform="matrix(1,0,0,1,0,10.787680000000002)">
            <svg viewBox="0 0 395.52 56.480000000000004" height="56.480000000000004" width="395.52">
              <g id="textblocktransform">
                <svg viewBox="0 0 395.52 56.480000000000004" height="56.480000000000004" width="395.52" id="textblock">
                  <g>
                    <svg viewBox="0 0 395.52 56.480000000000004" height="56.480000000000004" width="395.52">
                      <g transform="matrix(1,0,0,1,0,0)">
                        <svg width="395.52" viewBox="2.5999999046325684 -34.79999923706055 247.17999267578125 35.29999923706055" height="56.480000000000004" data-palette-color="#ffffff">
                          <g class="wordmark-text-0" data-fill-palette-color="primary" id="text-0">
                            <path d="M15.7-34.8Q21.35-34.8 24.58-32.3 27.8-29.8 27.8-25.2L27.8-25.2 27.8-24.6 22.9-24.6 22.9-25.35Q22.9-27.75 20.95-29.05 19-30.35 15.8-30.35L15.8-30.35Q12.25-30.35 10.28-29.18 8.3-28 8.3-25.8L8.3-25.8Q8.3-24.15 9.43-23.1 10.55-22.05 12.23-21.45 13.9-20.85 16.85-20.1L16.85-20.1Q20.65-19.1 23-18.15 25.35-17.2 27.03-15.3 28.7-13.4 28.7-10.25L28.7-10.25Q28.7-4.65 25.28-2.08 21.85 0.5 15.65 0.5L15.65 0.5Q9.45 0.5 6.03-2.13 2.6-4.75 2.6-9.75L2.6-9.75 2.65-10.75 7.55-10.75 7.5-9.7Q7.5-6.8 9.68-5.38 11.85-3.95 15.7-3.95L15.7-3.95Q19.45-3.95 21.63-5.33 23.8-6.7 23.8-9.1L23.8-9.1Q23.8-11 22.63-12.18 21.45-13.35 19.68-14 17.9-14.65 14.85-15.45L14.85-15.45Q11.1-16.45 8.85-17.35 6.6-18.25 5-20.13 3.4-22 3.4-25.05L3.4-25.05Q3.4-30 6.75-32.4 10.1-34.8 15.7-34.8L15.7-34.8ZM34-34.3L46.9-34.3 46.9-29.85 42.9-29.85 42.9-4.45 46.9-4.45 46.9 0 34 0 34-4.45 38-4.45 38-29.85 34-29.85 34-34.3ZM89.95-34.3L94.7-34.3 84.65 0 79.65 0 72.65-24.8 72.3-24.8 65.05 0 60.05 0 50.25-34.3 55.5-34.3 62.75-8.45 63.05-8.45 70.34-34.3 75.09-34.3 82.34-8.45 82.65-8.45 89.95-34.3ZM99.94-34.3L122.44-34.3 121.79-29.85 104.84-29.85 104.84-19.75 120.19-19.75 120.19-15.3 104.84-15.3 104.84-4.45 122.09-4.45 122.79 0 99.94 0 99.94-34.3ZM140.69-34.8Q146.34-34.8 149.56-32.3 152.79-29.8 152.79-25.2L152.79-25.2 152.79-24.6 147.89-24.6 147.89-25.35Q147.89-27.75 145.94-29.05 143.99-30.35 140.79-30.35L140.79-30.35Q137.24-30.35 135.27-29.18 133.29-28 133.29-25.8L133.29-25.8Q133.29-24.15 134.42-23.1 135.54-22.05 137.22-21.45 138.89-20.85 141.84-20.1L141.84-20.1Q145.64-19.1 147.99-18.15 150.34-17.2 152.02-15.3 153.69-13.4 153.69-10.25L153.69-10.25Q153.69-4.65 150.27-2.08 146.84 0.5 140.64 0.5L140.64 0.5Q134.44 0.5 131.02-2.13 127.59-4.75 127.59-9.75L127.59-9.75 127.64-10.75 132.54-10.75 132.49-9.7Q132.49-6.8 134.67-5.38 136.84-3.95 140.69-3.95L140.69-3.95Q144.44-3.95 146.62-5.33 148.79-6.7 148.79-9.1L148.79-9.1Q148.79-11 147.62-12.18 146.44-13.35 144.67-14 142.89-14.65 139.84-15.45L139.84-15.45Q136.09-16.45 133.84-17.35 131.59-18.25 129.99-20.13 128.39-22 128.39-25.05L128.39-25.05Q128.39-30 131.74-32.4 135.09-34.8 140.69-34.8L140.69-34.8ZM169.94-34.3L175.34-34.3 188.74 0 183.44 0 180.54-7.45 164.14-7.45 161.29 0 156.54 0 169.94-34.3ZM178.84-11.9L172.54-28.4 172.24-28.4 165.89-11.9 178.84-11.9ZM208.34-34.3Q211.24-34.3 213.59-33 215.94-31.7 217.26-29.43 218.59-27.15 218.59-24.3L218.59-24.3Q218.59-21.45 217.26-19.18 215.94-16.9 213.59-15.6 211.24-14.3 208.34-14.3L208.34-14.3 198.44-14.3 198.44 0 193.53 0 193.53-34.3 208.34-34.3ZM207.88-29.85L198.44-29.85 198.44-18.75 207.88-18.75Q210.24-18.75 211.96-20.38 213.69-22 213.69-24.3L213.69-24.3Q213.69-26.65 211.96-28.25 210.24-29.85 207.88-29.85L207.88-29.85ZM239.53-34.3Q242.43-34.3 244.78-33 247.13-31.7 248.46-29.43 249.78-27.15 249.78-24.3L249.78-24.3Q249.78-21.45 248.46-19.18 247.13-16.9 244.78-15.6 242.43-14.3 239.53-14.3L239.53-14.3 229.63-14.3 229.63 0 224.73 0 224.73-34.3 239.53-34.3ZM239.08-29.85L229.63-29.85 229.63-18.75 239.08-18.75Q241.43-18.75 243.16-20.38 244.88-22 244.88-24.3L244.88-24.3Q244.88-26.65 243.16-28.25 241.43-29.85 239.08-29.85L239.08-29.85Z" fill="#ffffff" data-fill-palette-color="primary"/>
                          </g>
                        </svg>
                      </g>
                    </svg>
                  </g>
                </svg>
              </g>
            </svg>
          </g>
          <g transform="matrix(1,0,0,1,427.28056964736,0)">
            <svg viewBox="0 0 78.05536000000001 78.05536000000001" height="78.05536000000001" width="78.05536000000001">
              <g>
                <svg xmlns="http://www.w3.org/2000/svg" version="1.0" x="0" y="0" viewBox="1 1 48 48" enable-background="new 0 0 50 50" height="78.05536000000001" width="78.05536000000001" class="icon-icon-0" data-fill-palette-color="accent" id="icon-0">
                  <g fill="#ffffff" data-fill-palette-color="accent">
                    <g fill="#ffffff" data-fill-palette-color="accent">
                      <rect x="1" y="1" fill="#ffffff" width="23" height="5" data-fill-palette-color="accent"/>
                      <rect x="1" y="10" fill="#ffffff" width="23" height="5" data-fill-palette-color="accent"/>
                      <rect x="1" y="19" fill="#ffffff" width="23" height="5" data-fill-palette-color="accent"/>
                    </g>
                    <g fill="#ffffff" data-fill-palette-color="accent">
                      <rect x="26" y="26" fill="#ffffff" width="23" height="5" data-fill-palette-color="accent"/>
                      <rect x="26" y="35" fill="#ffffff" width="23" height="5" data-fill-palette-color="accent"/>
                      <rect x="26" y="44" fill="#ffffff" width="23" height="5" data-fill-palette-color="accent"/>
                    </g>
                    <g fill="#ffffff" data-fill-palette-color="accent">
                      <rect x="19" y="26" fill="#ffffff" width="5" height="23" data-fill-palette-color="accent"/>
                      <rect x="10" y="26" fill="#ffffff" width="5" height="23" data-fill-palette-color="accent"/>
                      <rect x="1" y="26" fill="#ffffff" width="5" height="23" data-fill-palette-color="accent"/>
                    </g>
                    <g fill="#ffffff" data-fill-palette-color="accent">
                      <rect x="44" y="1" fill="#ffffff" width="5" height="23" data-fill-palette-color="accent"/>
                      <rect x="35" y="1" fill="#ffffff" width="5" height="23" data-fill-palette-color="accent"/>
                      <rect x="26" y="1" fill="#ffffff" width="5" height="23" data-fill-palette-color="accent"/>
                    </g>
                  </g>
                </svg>
              </g>
            </svg>
          </g>
        </svg>
      </g>
    </svg>
    <rect width="395.52" height="61.09293674950803" fill="none" stroke="none" visibility="hidden"/>
  </g>
</svg>